<?xml version="1.0" standalone="no"?>
<!DOCTYPE svg PUBLIC "-//W3C//DTD SVG 1.1//EN" "http://www.w3.org/Graphics/SVG/1.1/DTD/svg11.dtd" >
<svg xmlns="http://www.w3.org/2000/svg">
<metadata>Generated by IcoMoon</metadata>
<defs>
<font id="cpa" horiz-adv-x="1024">
<font-face units-per-em="1024" ascent="960" descent="-64" />
<missing-glyph horiz-adv-x="1024" />
<glyph unicode="&#x20;" d="" horiz-adv-x="512" />
<glyph unicode="&#xe600;" d="M512.569 960c-283.307 0-512.569-229.262-512.569-512s229.262-512 512.569-512 512.569 229.262 512.569 512c0 282.738-229.831 512-512.569 512zM512.569-0.853c-247.467 0-448.284 201.956-448.284 448.853s201.387 447.716 448.284 447.716c247.467 0 448.284-200.818 448.284-447.716s-201.387-448.853-448.284-448.853zM736.711 479.858h-192.284v192.284c0 17.636-14.222 31.858-31.858 31.858s-32.427-14.222-32.427-31.858v-192.284h-191.716c-17.636 0-32.427-14.222-32.427-31.858s14.222-31.858 31.858-31.858h192.284v-192.284c0-17.636 14.222-31.858 31.858-31.858s31.858 14.222 31.858 31.858v192.284h192.284c17.636 0 31.858 14.222 31.858 31.858s-13.653 31.858-31.289 31.858z" horiz-adv-x="1025" />
<glyph unicode="&#xe601;" d="M575.716 223.858h-31.858v286.151c0 0.569 0 0.569 0 1.138s0 0.569 0 1.138c0 17.636-14.222 31.858-31.858 31.858h-63.716c-17.636 0-31.858-14.222-31.858-31.858s14.222-31.858 31.858-31.858h31.858v-256h-31.858c-17.636 0-31.858-14.222-31.858-31.858s14.222-31.858 31.858-31.858h128c17.636 0 31.858 14.222 31.858 31.858s-14.222 31.289-32.427 31.289zM512 607.858c35.271 0 63.716 28.444 63.716 63.716s-28.444 64.284-63.716 64.284-63.716-28.444-63.716-63.716 28.444-64.284 63.716-64.284zM512 960c-282.738 0-512-229.262-512-512s229.262-512 512-512 512 229.262 512 512-229.262 512-512 512zM512-0.853c-246.898 0-448.284 201.956-448.284 448.853s201.387 448.284 448.284 448.284 448.284-201.387 448.284-448.284-201.387-448.853-448.284-448.853z" />
<glyph unicode="&#xe602;" d="M424.96 61.074c0 0.731-0.731 0.731 0 0l-89.966 144.091c-6.583 10.971-20.48 14.629-30.72 8.777l-8.046-5.12c-10.971-5.851-10.24-21.211-4.389-32.183l57.051-90.697c-4.389 0.731-9.509 1.463-13.897 2.926-100.206 27.063-185.051 97.28-233.326 191.634-45.349 89.966-53.394 192.366-24.137 288.183 29.989 96.549 97.28 174.811 184.32 220.891 14.629 8.046 20.48 27.063 13.166 41.691-8.046 16.091-26.331 21.943-40.96 13.897-100.937-54.126-179.2-145.554-213.577-257.463-35.109-111.909-24.869-231.131 27.794-335.726 55.589-110.446 154.331-191.634 271.36-223.817 1.463 0 2.926-0.731 4.389-0.731l-78.994-41.691c-10.971-5.851-14.629-19.749-8.046-30.72l2.926-8.046c6.583-10.971 17.554-14.629 27.794-8.777l144.823 76.069c0 0 0.731 0 0.731 0l9.509 5.851c5.12 2.926 8.777 8.046 10.24 13.166 1.463 5.851 0.731 11.703-2.194 16.823l-5.851 10.971zM830.171 640.366c-55.589 110.446-151.406 191.634-268.434 223.817-8.777 2.194-18.286 2.926-27.063 4.389l79.726 41.691c10.24 5.851 16.823 19.017 10.24 29.989l-2.926 8.046c-6.583 10.971-20.48 14.629-30.72 8.777l-144.823-76.069c0 0-0.731 0-0.731 0l-9.509-5.851c-5.851-2.926-8.777-8.046-10.24-13.897-1.463-5.12-0.731-10.971 2.194-16.823l5.851-9.509c0 0 0 0 0.731-0.731l89.234-144.091c6.583-10.971 19.749-14.629 30.72-8.777l7.314 5.12c10.971 5.851 11.703 21.211 5.12 32.183l-57.051 91.429c12.434-2.194 24.869-3.657 36.571-6.583 100.206-27.063 182.126-97.28 229.669-191.634 45.349-89.966 53.394-192.366 24.137-288.183s-94.354-174.811-181.394-220.891c-14.629-8.046-20.48-26.331-13.166-41.691 5.12-10.971 16.091-16.823 27.063-16.823 4.389 0 9.509 1.463 13.897 3.657 101.669 54.126 176.274 145.554 210.651 257.463 35.109 111.177 24.869 230.4-27.063 334.994z" horiz-adv-x="878" />
<glyph unicode="&#xe603;" d="M1003.535 960c-5.847 0-13.887-1.462-21.927-5.116l-954.564-405.653c-34.353-14.618-36.545-42.393-5.116-62.858l270.435-168.108c31.429-19.734 73.091-62.127 92.825-94.287l161.53-265.319c9.502-15.349 20.465-22.658 31.429-22.658 11.695 0 23.389 8.771 30.698 27.044l407.846 954.564c11.695 27.044 5.847 42.393-13.156 42.393zM325.253 375.275l-218.541 136.68 733.83 311.366-472.897-480.936c-13.887 12.425-28.505 24.12-42.393 32.891zM572.3 43.443l-130.101 214.156c-7.309 12.425-18.273 25.582-29.236 39.469l474.358 483.129-315.021-736.754z" horiz-adv-x="1023" />
<glyph unicode="&#xe604;" d="M768 960h-351.817c-35.84 0-64.366-28.526-64.366-64.366h351.817v-256h256v-512h-223.817v-64.366h223.817c35.109 0 64.366 28.526 64.366 64.366v576.366l-256 256zM768 704v165.303l165.303-165.303h-165.303zM64.366 832c-35.84 0-64.366-28.526-64.366-63.634v-768c0-35.84 28.526-64.366 64.366-64.366h544.183c35.109 0 64.366 28.526 64.366 64.366v575.634l-256 256h-352.549zM607.817 0.366h-543.451v768h288.183v-256h256v-512zM416.183 576v165.303l165.303-165.303h-165.303z" />
<glyph unicode="&#xe605;" d="M765.867 800.711h-215.467v86.756c0 40.533-31.289 72.533-70.4 72.533h-164.267c-38.4 0-69.689-32-69.689-72.533v-87.467h-215.467c-17.067 0.711-30.578-13.511-30.578-31.289s13.511-32 30.578-32h41.956l71.111-738.844c2.844-34.844 31.289-61.867 64-61.867h381.156c32.711 0 61.156 27.022 64 61.156l71.111 738.844h41.956c17.067 0 30.578 14.222 30.578 32s-14.222 32.711-30.578 32.711zM306.489 887.467c0 4.978 4.267 9.244 9.244 9.244h164.267c4.978 0 9.244-4.267 9.244-9.244v-87.467h-182.756v87.467zM591.644 3.556c0-1.422-2.133-3.556-2.844-3.556h-381.156c-1.422 0-2.844 1.422-3.556 3.556l-70.4 733.156h528.356l-70.4-733.156z" horiz-adv-x="796" />
<glyph unicode="&#xe606;" d="M964.978 909.511c-34.844 33.422-73.244 50.489-114.489 50.489-64 0-110.933-41.244-123.733-54.044-17.778-17.778-632.889-632.178-632.889-632.178-4.267-4.267-7.111-9.244-8.533-14.933-14.222-51.2-83.2-278.044-83.911-280.889-3.556-11.378-0.711-24.178 8.533-32.711 6.4-6.4 14.222-9.244 22.756-9.244 3.556 0 6.4 0.711 9.956 1.422 2.133 0.711 236.8 76.8 275.911 88.178 4.978 1.422 9.956 4.267 13.511 7.822 24.178 24.178 598.044 590.222 635.733 630.044 39.111 40.533 58.311 83.2 57.6 125.867-0.711 41.956-20.622 82.489-60.444 120.178zM278.756 209.067c-33.422 33.422-67.556 52.622-93.867 63.289 112.356 112.356 408.178 407.467 531.911 531.2 16.356-3.556 54.756-16.356 93.867-56.178 39.822-39.822 50.489-86.044 52.622-96-125.867-124.444-415.289-411.022-529.778-524.089-10.667 24.889-27.022 54.044-54.756 81.778zM141.511 218.311c17.778-4.267 54.044-17.778 91.022-55.467 28.444-29.156 41.956-60.444 48.356-80.356-44.089-14.222-141.511-47.644-203.378-67.556 17.778 60.444 49.067 154.311 64 203.378zM920.889 709.689c-1.422-1.422-4.267-4.267-5.689-6.4-9.956 26.311-27.733 59.022-58.311 90.311-32 31.289-64 49.778-88.889 61.156 1.422 1.422 4.267 4.267 4.267 4.267 3.556 3.556 36.978 35.556 78.222 35.556 23.467 0 46.933-10.667 69.689-32 26.311-25.6 39.822-50.489 40.533-74.667 0.711-24.889-12.8-51.2-39.822-78.222z" horiz-adv-x="1025" />
<glyph unicode="&#xe607;" d="M1014.491-9.143l-310.126 313.051c57.783 69.486 92.891 158.72 92.891 256 0 220.891-178.469 400.091-398.629 400.091s-398.629-179.2-398.629-400.091 178.469-400.091 398.629-400.091c100.206 0 190.903 37.303 261.12 98.011l309.394-312.32c12.434-12.434 32.914-12.434 45.349 0s12.434 32.914 0 45.349zM398.629 223.451c-185.051 0-334.994 150.674-334.994 336.457s149.943 336.457 334.994 336.457 334.994-150.674 334.994-336.457-149.943-336.457-334.994-336.457z" />
<glyph unicode="&#xe608;" d="M834.56 641.097c-12.434 12.434-32.914 12.434-45.349 0s-12.434-32.914 0-45.349l115.566-115.566h-552.229c-17.554 0-32.183-14.629-32.183-32.183s14.629-32.183 32.183-32.183h554.423l-117.76-117.76c-12.434-12.434-12.434-32.914 0-45.349 6.583-6.583 14.629-9.509 22.674-9.509s16.091 2.926 22.674 9.509l189.44 194.56-189.44 193.829zM607.817 38.4c0-21.211-17.554-38.766-38.766-38.766h-465.92c-21.211 0-38.766 17.554-38.766 38.766l0.731 818.469c0 21.211 17.554 38.766 38.766 38.766h465.189c21.211 0 38.766-17.554 38.766-38.766v-248.686h64.366v287.451c0 35.84-28.526 64.366-63.634 64.366h-544.183c-35.84 0-64.366-28.526-64.366-64.366v-896c0-35.109 28.526-63.634 64.366-63.634h544.183c35.109 0 64.366 28.526 64.366 64.366v288.914h-64.366v-250.88z" />
<glyph unicode="&#xe609;" d="M459.294 877.929l101.647-98.635 26.353-24.094h655.812v-737.129h-1160.282v859.859h372.706zM496.941 960h-414.118c-45.929 0-82.824-36.894-82.824-82.071v-859.859c0-45.176 36.894-82.071 82.824-82.071h1159.529c45.929 0 82.824 36.894 82.824 82.071v737.129c0 45.176-36.894 82.071-82.824 82.071h-621.176l-124.235 122.729z" horiz-adv-x="1325" />
<glyph unicode="&#xe60a;" d="M798.578 0h-734.578v799.289h448.711l64.711 62.578-1.422 1.422h-512c-35.556 0-64-28.444-64-64v-799.289c0-35.556 28.444-64 64-64h734.578c35.556 0 64 28.444 64 64v468.622l-64-61.156v-407.467zM973.511 918.044c-29.156 27.733-60.444 41.956-94.578 41.956-53.333 0-91.733-34.133-102.4-44.8-14.933-14.933-438.756-438.044-438.756-438.044-3.556-3.556-5.689-7.822-7.111-12.089-11.378-42.667-68.978-231.111-69.689-232.533-2.844-9.956 0-19.911 7.111-27.022 4.978-4.978 12.089-7.822 19.2-7.822 2.844 0 5.689 0 8.533 1.422 2.133 0.711 196.267 63.289 228.267 73.244 4.267 1.422 7.822 3.556 11.378 6.4 19.911 19.911 409.6 403.911 440.889 435.911 32.711 33.422 49.067 68.267 48.356 103.822-1.422 34.844-18.489 68.267-51.2 99.556zM929.422 758.756c-17.778-18.489-157.156-155.733-413.867-409.6l-19.2-19.2c-29.867-9.244-100.267-32-153.6-49.067 17.067 56.889 37.689 125.156 46.933 157.867 54.756 54.756 418.133 417.422 431.644 430.933 2.844 2.844 27.022 26.311 57.6 26.311 17.067 0 33.422-7.822 50.489-24.178 19.911-19.2 30.578-37.689 30.578-54.756 0-17.778-9.956-37.689-30.578-58.311z" />
<glyph unicode="&#xe60b;" d="M1193.956 432.356c1.422 5.689 1.422 11.378 0 17.778l-137.244 482.133c-4.978 16.356-19.2 27.733-36.267 27.733h-857.6c-17.067 0-32-11.378-36.267-28.444l-125.156-457.244c-2.844-9.244-0.711-18.489 2.844-26.311-2.133-6.4-4.267-13.511-4.267-20.622v-416c0-41.956 33.422-76.089 74.667-76.089h1045.333c41.244 0 74.667 34.133 74.667 76.089v416c0 2.133-0.711 3.556-0.711 4.978zM191.289 883.911h800.711l108.8-381.156h-348.444c-1.422-90.311-64.711-152.889-155.022-152.889s-152.178 62.578-153.6 153.6h-356.978l104.533 380.444zM1120 11.378h-1045.333v416h307.2c32.711-95.289 111.644-153.6 215.467-153.6s184.178 58.311 216.889 153.6h305.778v-416z" horiz-adv-x="1195" />
<glyph unicode="&#xe60c;" d="M960.366 545.28l-81.92 18.286c-6.583 20.48-14.629 40.229-24.137 59.246l44.617 73.874c16.823 26.331 24.869 65.829 0 90.697l-45.349 45.349c-24.869 24.869-67.291 20.48-92.891 2.926l-72.411-46.811c-18.286 9.509-38.034 18.286-58.514 24.869l-18.286 82.651c-5.12 30.72-32.183 63.634-67.291 63.634h-64.366c-35.109 0-57.051-33.646-63.634-64.366l-20.48-81.92c-21.943-6.583-42.423-15.36-62.171-26.331l-74.606 47.543c-24.869 17.554-67.291 21.943-92.16-2.926l-45.349-45.349c-24.869-24.869-16.823-64.366 0-90.697l46.811-77.531c-8.777-18.286-16.823-35.84-22.674-55.589l-81.92-17.554c-30.72-5.851-63.634-32.183-63.634-68.023v-64.366c0-35.109 33.646-57.051 64.366-64.366l83.383-20.48c5.12-16.823 12.434-33.646 20.48-50.469l-46.811-78.263c-16.823-26.331-24.869-65.829 0-90.697l45.349-45.349c24.869-24.869 67.291-20.48 92.891-2.926l73.874 46.811c19.749-10.24 40.96-19.749 62.903-26.331l20.48-81.92c6.583-29.257 28.526-62.903 63.634-62.903h64.366c35.109 0 62.171 32.914 67.291 63.634l18.286 83.383c20.48 6.583 39.497 14.629 57.783 24.137l72.411-46.080c25.6-17.554 67.291-21.943 92.891 2.926l45.349 45.349c24.869 24.869 16.823 64.366 0 90.697l-44.617 73.874c8.777 17.554 16.823 35.84 22.674 54.857l83.383 20.48c29.989 7.314 63.634 28.526 63.634 64.366v63.634c0 35.84-32.914 62.171-63.634 68.023zM959.634 418.011c-2.926-2.194-8.046-4.389-14.629-5.851l-117.76-29.989-10.971-33.646c-5.12-15.36-11.703-30.72-19.017-45.349l-16.091-31.451 62.903-104.594c3.657-6.583 5.851-12.434 6.583-15.36l-42.423-42.423c-4.389 1.463-8.777 2.926-10.971 4.389l-105.326 67.291-32.914-16.823c-16.091-8.046-32.183-14.629-48.274-20.48l-35.109-10.971-26.331-119.223c-1.463-6.583-4.389-11.703-6.583-13.166h-57.783c-2.194 2.926-4.389 8.046-5.851 14.629l-29.257 117.76-34.377 10.971c-17.554 5.851-35.109 13.166-51.931 21.943l-32.914 17.554-105.326-67.291c-4.389-2.926-8.777-4.389-13.166-4.389l-41.691 40.96c0.731 2.926 2.194 8.777 5.851 14.629l65.829 108.983-16.823 29.989c-7.314 14.629-13.166 28.526-17.554 42.423l-10.971 33.646-117.029 29.257c-7.314 1.463-12.434 4.389-15.36 6.583v59.246c0 0 0 0 0 0 0.731 0 6.583 3.657 10.971 4.389l120.686 27.063 10.971 35.109c4.389 14.629 10.971 29.257 19.017 45.349l15.36 32.183-65.097 107.52c-3.657 6.583-5.851 12.434-6.583 15.36l42.423 42.423c4.389-1.463 8.777-2.926 10.971-4.389l107.52-68.754 32.914 17.554c16.823 8.777 34.377 16.091 51.931 21.943l34.377 10.971 29.257 117.029c1.463 7.314 4.389 12.434 6.583 15.36h59.246c-1.463-0.731 2.926-6.583 3.657-10.971l27.063-121.417 35.109-10.971c16.091-5.851 32.183-12.434 48.274-21.211l32.914-16.823 103.131 65.829c4.389 2.926 8.777 4.389 13.166 4.389l41.691-40.96c-0.731-3.657-2.194-8.777-5.851-14.629l-63.634-105.326 16.091-31.451c8.777-16.823 15.36-32.914 20.48-49.006l10.971-35.109 118.491-26.331c7.314-1.463 12.434-5.12 13.897-8.046l-0.731-56.32zM512.731 640.366c-106.789 0-193.097-86.309-193.097-192.366s86.309-192.366 192.366-192.366 193.097 86.309 193.097 192.366-86.309 192.366-192.366 192.366zM512 320c-70.217 0-128 57.783-128 128s57.783 128 128 128 128-57.783 128-128-57.783-128-128-128z" />
<glyph unicode="&#xe60d;" d="M716.069 635.246l-299.886-302.080-135.314 135.314c-12.434 12.434-32.914 12.434-45.349 0s-12.434-32.914 0-45.349l158.72-158.72c12.434-12.434 32.914-12.434 45.349 0 0 0.731 0.731 2.194 0.731 2.926l321.097 322.56c12.434 12.434 12.434 32.914 0 45.349s-32.914 12.434-45.349 0zM512 960c-283.063 0-512-228.937-512-512s228.937-512 512-512 512 228.937 512 512c0 283.063-228.937 512-512 512zM512-1.097c-247.223 0-447.634 201.874-447.634 449.097s200.411 447.634 447.634 447.634 447.634-200.411 447.634-447.634-200.411-449.097-447.634-449.097z" />
<glyph unicode="&#xe60e;" d="M512 895.634c247.223 0 447.634-201.143 447.634-447.634s-200.411-449.097-447.634-449.097-447.634 201.874-447.634 449.097 200.411 447.634 447.634 447.634zM512 960c-283.063 0-512-228.937-512-512s228.937-512 512-512c283.063 0 512 228.937 512 512s-228.937 512-512 512v0zM512 799.817c17.554 0 32.183-14.629 32.183-32.183v-319.634c0-17.554-14.629-32.183-32.183-32.183s-32.183 14.629-32.183 32.183v320.366c0 17.554 14.629 31.451 32.183 31.451zM694.857 264.411c-12.434-12.434-32.914-12.434-45.349 0l-157.989 158.72c-12.434 12.434-12.434 32.914 0 45.349s32.914 12.434 45.349 0l157.989-158.72c12.434-12.434 12.434-32.914 0-45.349z" />
<glyph unicode="&#xe60f;" d="M454.624 266.37c247.046 0 438.544 143.258 435.62 355.221 0.731 188.574-195.883 338.41-442.929 338.41s-447.315-149.836-447.315-337.679c0-116.945 56.28-241.93 174.687-303.326 0-0.731 0-1.462 0-2.193 0-51.163-41.662-120.6-58.473-149.105v0c-1.462-2.924-2.193-6.578-2.193-10.233 0-14.618 10.964-25.582 25.582-25.582 2.193 0 5.847 0.731 6.578 0.731 0 0 0.731 0 0.731 0 87.709 14.618 216.348 114.021 235.352 137.41 19.734-2.924 32.891-3.655 49.702-3.655 6.578 0 13.887 0 22.658 0zM354.49 341.653l-43.854-36.545c-10.233-12.425-54.818-49.702-92.825-74.552 23.389 67.243 21.927 88.44 21.927 88.44l2.924 42.393-36.545 19.734c-95.018 48.971-137.41 151.298-137.41 241.199 0 149.105 170.301 268.243 379.34 268.243s374.955-119.138 374.955-268.243c-0.731-165.185-156.414-287.246-365.453-287.246 0 0-32.16-1.462-64.32 3.655l-38.738 2.924zM1096.36 341.653c0 94.287-36.545 165.916-126.447 219.272-2.193-24.851-9.502-51.894-16.811-75.283 58.473-40.931 75.283-83.323 75.283-143.989 0-74.552-34.353-129.37-114.752-170.301l-34.353-16.811c0 0 3.655-89.171 8.771-111.098-66.512 49.702-89.901 91.363-89.901 91.363l-35.814-5.847c-14.618-2.193-52.625-2.193-52.625-2.193-92.825 0-162.261 22.658-220.734 69.436 16.080 0.731-95.749 0.731-97.941-1.462 67.974-84.054 179.072-137.41 318.675-137.41 7.309 0 13.887 0 19.734 0 13.887 0 25.582 0 42.393 2.924 16.811-20.465 109.636-110.367 184.919-122.792 0 0 0 0 0.731 0s3.655-0.731 5.847-0.731c12.425 0 21.927 10.233 21.927 21.927 0 2.924-0.731 5.847-1.462 8.771v0c-13.887 24.851-36.545 97.211-36.545 141.065 0 0.731 0 1.462 0 1.462 101.596 53.356 149.105 130.832 149.105 231.697z" horiz-adv-x="1096" />
<glyph unicode="&#xe610;" d="M1010.010 237.526h-1006.425v420.948h1006.425v-420.948zM406.728 285.636h555.17v324.732h-555.17v-324.732z" />
<glyph unicode="&#xe611;" d="M896 640c-35.2 0-64-28.8-64-64v-256c0-35.202 28.8-64 64-64s64 28.798 64 64v256c0 35.2-28.8 64-64 64zM128 640c-35.2 0-64-28.8-64-64v-256c0-35.202 28.8-64 64-64s64 28.798 64 64v256c0 35.2-28.802 64-64 64zM224 224c0-53.020 42.98-96 96-96h32v-128c0-35.2 28.8-64 64-64s64 28.8 64 64v128h64v-128c0-35.2 28.8-64 64-64s64 28.8 64 64v128h32c53.020 0 96 42.98 96 96v352h-576v-352zM630.598 870.506l40.504 77.806c2.036 3.902 0.5 8.758-3.402 10.79-3.898 2.032-8.758 0.5-10.79-3.402l-41.118-78.986c-32.198 12.448-67.194 19.286-103.792 19.286-36.596 0-71.592-6.838-103.796-19.286l-41.116 78.984c-2.032 3.902-6.886 5.434-10.79 3.402s-5.434-6.886-3.402-10.79l40.5-77.808c-90.63-41.018-156.24-127.584-167.62-230.504h572.438c-11.374 102.924-76.984 189.488-167.616 230.508zM384 689.6c-25.626 0-46.4 20.774-46.4 46.4s20.774 46.4 46.4 46.4 46.4-20.774 46.4-46.4c-0.002-25.626-20.774-46.4-46.4-46.4zM640 689.6c-25.624 0-46.402 20.774-46.402 46.4s20.778 46.4 46.402 46.4 46.398-20.774 46.398-46.4-20.774-46.4-46.398-46.4z" />
<glyph unicode="&#xe612;" d="M791.496 415.908c-1.292 129.682 105.76 191.876 110.542 194.966-60.15 88.020-153.85 100.078-187.24 101.472-79.742 8.074-155.596-46.948-196.066-46.948-40.368 0-102.818 45.754-168.952 44.552-86.916-1.292-167.058-50.538-211.812-128.38-90.304-156.7-23.126-388.84 64.89-515.926 43.008-62.208 94.292-132.076 161.626-129.58 64.842 2.588 89.362 41.958 167.756 41.958 78.392 0 100.43-41.958 169.048-40.67 69.776 1.296 113.982 63.398 156.694 125.796 49.388 72.168 69.724 142.038 70.924 145.624-1.55 0.708-136.062 52.238-137.41 207.136zM662.56 796.478c35.738 43.358 59.86 103.512 53.28 163.522-51.478-2.096-113.876-34.29-150.81-77.55-33.14-38.376-62.15-99.626-54.376-158.436 57.468-4.484 116.13 29.204 151.906 72.464z" />
<glyph unicode="&#xe613;" d="M512.552-64c-14.296 0-28.808 0.604-43.132 1.8-281.321 23.468-491.097 271.438-467.628 552.768 10.744 128.783 69.12 247.739 164.374 334.953 94.715 86.722 217.328 134.479 345.253 134.479 14.299 0 28.809-0.604 43.127-1.8 136.284-11.368 259.983-75.125 348.307-179.532 88.324-104.401 130.703-236.95 119.333-373.231-10.745-128.783-69.12-247.739-164.373-334.956-94.712-86.724-217.33-134.481-345.261-134.481zM511.419 946.562c-124.559 0-243.949-46.505-336.179-130.954-92.753-84.924-149.597-200.757-160.059-326.158-22.849-273.944 181.421-515.412 455.355-538.261 13.95-1.165 28.088-1.754 42.014-1.754 124.567 0 243.959 46.508 336.189 130.955 92.756 84.925 149.595 200.758 160.056 326.167 11.072 132.704-30.195 261.773-116.203 363.434-86.005 101.659-206.452 163.747-339.161 174.818-13.95 1.161-28.083 1.752-42.013 1.752zM612.925 622.164c29.984 0 58.619-10.392 85.126-30.902 10.719-8.277 13.851-11.895 14.702-13.438-0.723-1.75-3.576-5.671-12.429-14.426-35.852-35.452-53.191-79.426-48.828-123.824 4.332-44.062 29.634-83.468 71.228-110.945 5.369-3.557 5.885-5.195 5.886-5.21 0.049-0.167 0.39-1.794-1.976-7.872-14.57-37.796-36.255-72.903-66.306-107.343-15.691-18.030-33.882-27.173-54.073-27.173-10.232 0-20.905 2.413-31.711 7.178-23.477 10.371-45.995 15.42-68.832 15.42-22.135 0-43.851-4.727-66.411-14.46-13.687-5.927-25.178-8.808-35.131-8.808-17.304 0-32.402 8.503-52.114 29.343-28.030 29.648-51.741 69.063-68.568 113.992-17.43 46.53-26.607 96.961-26.544 145.849 0.594 22.178 9.089 59.217 31.123 90.885 26.571 38.321 65.615 60.299 107.13 60.299 16.525 0 33.176-3.41 49.485-10.131 19.307-7.963 37.498-11.833 55.611-11.833 17.813 0 35.761 3.746 54.87 11.448 19.69 7.929 39.121 11.952 57.759 11.952zM612.925 635.602c-20.534 0-41.536-4.37-62.777-12.929-17.254-6.956-33.533-10.476-49.848-10.476-16.444 0-32.929 3.577-50.489 10.816-18.293 7.541-36.697 11.145-54.61 11.145-46.083 0-88.908-23.875-118.17-66.082-24.566-35.301-32.937-75.199-33.519-98.358-0.177-104.828 40.311-207.408 98.786-269.253 21.225-22.441 39.765-33.548 61.877-33.548 12.082 0 25.235 3.316 40.468 9.917 20.739 8.943 40.94 13.351 61.074 13.351 21.027 0 41.984-4.804 63.403-14.272 12.705-5.595 25.165-8.326 37.142-8.326 24.022 0 46.095 10.976 64.209 31.793 28.987 33.22 52.701 69.813 68.707 111.33 5.242 13.486 4.083 20.435-9.029 29.119-79.442 52.478-87.986 147.159-20.376 214.013 22.58 22.341 22.647 27.857-3.517 48.056-29.341 22.709-60.749 33.703-93.33 33.703v0zM607.226 769.112c-0.105-1.936-0.099-4.096 0.284-6.357-2.107-24.949-13.366-49.985-31.844-70.705-18.42-20.656-42.247-34.441-65.377-37.83-1.134-0.167-2.147-0.273-3.023-0.323-0.070 0.855-0.119 1.999-0.11 3.507 0.115 22.523 12.852 49.749 34.067 72.831 20.334 22.127 44.807 36.496 66.005 38.875zM611.087 782.822c-0.713 0-1.472-0.027-2.286-0.080-53.437-3.644-114.804-70.363-115.087-125.263-0.062-11.574 2.503-17.047 12.564-17.047 1.752 0 3.733 0.167 5.963 0.497 54.662 8.003 104.935 63.517 108.82 122.875-2.279 6.382 5.475 19.018-9.976 19.018v0z" />
<glyph unicode="&#xe614;" d="M925.789 124.726c-27.067 11.107-49.368 28.597-47.75 62.092 1.574 33.451-23.919 55.621-23.919 55.621s22.301 73.243 1.574 133.717c-20.683 60.562-89.116 157.592-141.632 230.791-52.429 73.243-7.915 157.636-55.621 265.817-47.794 108.181-171.891 101.84-238.75 55.665-66.902-46.088-46.219-160.653-43.071-214.875 3.192-54.047 1.443-92.57-4.723-106.563-6.297-13.993-49.324-65.328-78.009-108.268-28.641-42.94-49.324-132.099-70.094-168.699-20.683-36.6-6.34-70.007-6.34-70.007s-14.342-4.723-25.493-28.729c-11.15-23.788-33.407-34.938-73.199-42.809-39.792-7.958-39.792-33.539-30.259-62.18 9.576-28.597 0.044-44.602-11.107-81.114s44.558-47.75 98.648-54.003c54.134-6.428 114.609-41.453 165.594-47.794 50.855-6.384 66.815 34.982 66.815 34.982s57.282 12.812 117.713 14.299c60.518 1.618 117.713-12.725 117.713-12.725s11.15-25.449 31.833-36.556c20.727-11.15 65.284-12.768 93.926 17.403 28.685 30.303 105.076 68.433 148.016 92.352 43.071 23.962 35.2 60.518 8.133 71.581zM553.322 826.589c27.286 0 49.324-27.067 49.324-60.431 0-23.7-11.063-44.121-27.198-54.047-4.11 1.793-8.439 3.629-13.031 5.597 9.707 4.81 16.616 17.185 16.616 31.615 0 18.803-11.631 34.063-26.018 34.063-14.211 0-25.886-15.304-25.886-34.063 0-6.953 1.662-13.643 4.504-19.109-8.483 3.367-16.31 6.515-22.432 8.833-3.323 8.133-5.204 17.316-5.204 27.111 0 33.364 22.038 60.431 49.324 60.431zM549.78 699.168c13.643-4.723 28.816-13.599 27.242-22.388-1.618-8.833-8.789-8.833-27.242-20.114-18.497-11.194-58.551-36.031-71.363-37.649-12.899-1.618-20.071 5.597-33.714 14.386-13.643 8.833-39.311 29.778-32.839 40.929 0 0 19.983 15.304 28.772 23.307 8.833 8.046 31.309 27.242 44.951 24.75 13.643-2.318 50.548-18.409 64.191-23.219zM426.776 817.013c21.514 0 39.005-25.624 39.005-57.239 0-5.816-0.568-11.194-1.662-16.398-5.247-1.793-10.582-4.679-15.742-9.051-2.624-2.143-4.941-4.154-7.171-6.166 3.411 6.384 4.766 15.479 3.236 25.056-2.886 17.272-14.386 29.866-25.799 28.073-11.369-1.968-18.234-17.491-15.348-34.85 2.93-17.36 14.386-29.953 25.755-28.073 0.656 0.131 1.268 0.306 1.924 0.525-5.553-5.335-10.669-9.926-15.873-13.818-15.742 7.302-27.286 29.035-27.286 54.746 0 31.615 17.447 57.195 38.961 57.195zM384.754 12.828c-5.072-22.826-31.79-39.398-31.79-39.398-24.225-7.609-91.564 21.601-122.086 34.413-30.478 12.637-108.093 16.573-118.282 27.854-10.101 11.544 5.072 36.949 8.964 61.043 3.761 24.269-7.609 39.442-3.848 56.014 3.848 16.485 53.434 16.485 72.456 27.898 19.109 11.5 22.913 44.558 38.174 53.434 15.261 8.964 43.202-22.826 54.659-40.71 11.413-17.709 54.659-94.057 72.456-113.122 17.841-19.065 34.369-44.602 29.297-67.427zM666.225 234.612c-4.591-22.432-4.591-103.502-4.591-103.502s-49.324-68.345-125.803-79.539c-76.391-11.194-114.609-3.148-114.609-3.148l-42.94 49.28c0 0 33.364 4.854 28.641 38.261-4.81 33.407-101.84 79.583-119.375 120.993-17.447 41.322-3.148 111.417 19.152 146.442 22.257 34.982 36.512 111.329 58.813 136.866 22.301 25.362 39.748 79.496 31.79 103.414 0 0 47.75-57.326 81.114-47.837 33.407 9.576 108.312 65.328 119.375 55.708 11.107-9.576 106.607-219.597 116.095-286.456 9.576-66.815-6.384-117.713-6.384-117.713s-36.556 9.532-41.278-12.768zM910.485 84.672c-14.867-13.643-97.599-47.050-122.392-73.112-24.662-25.843-56.889-46.875-76.61-40.754-19.852 6.253-37.124 33.407-28.466 73.024 8.614 39.486 16.092 82.775 14.867 107.525s-6.253 58.201 0 63.142c6.166 4.81 16.004 2.405 16.004 2.405s-4.854-46.919 23.525-59.381c28.379-12.244 69.22 4.941 81.595 17.403 12.418 12.287 21.076 30.828 21.076 30.828s12.331-6.253 11.107-25.974c-1.224-19.765 8.614-48.275 27.242-58.113 18.497-9.751 46.919-23.438 32.052-36.993z" />
<glyph unicode="&#xe615;" d="M760.942 960h-497.885c-22.677 0-41.063-18.386-41.063-41.063v-941.875c0-22.677 18.386-41.063 41.063-41.063h497.885c22.677 0 41.063 18.386 41.063 41.063v941.875c0 22.677-18.386 41.063-41.063 41.063zM456.278 874.333h104.669c3.932 0 7.083-3.182 7.083-7.094s-3.182-7.094-7.083-7.094h-104.669c-3.911 0-7.094 3.182-7.094 7.094s3.182 7.094 7.094 7.094zM508.612 21.677c-13.068 0-23.662 10.594-23.662 23.662s10.584 23.673 23.662 23.673c13.068 0 23.662-10.594 23.662-23.673 0-13.068-10.594-23.662-23.662-23.662zM754.978 98.547h-485.956v698.907h485.956v-698.907z" />
<glyph unicode="&#xe616;" d="M930.908 75.635c93.092 0 93.092 95.931 93.092 95.931v552.868c0 0 0 95.93-93.092 95.93h-837.818c-93.090 0-93.090-95.93-93.090-95.93v-552.913c0 0.045 0-95.886 93.090-95.886h837.818zM953.901 482.863c19.27 0 34.91-16.151 34.91-36.073s-15.641-36.074-34.91-36.074-34.908 16.15-34.908 36.074c0 19.923 15.639 36.073 34.908 36.073zM46.545 173.894v548.213c0 0 0 51.712 48.175 51.712h741.515c48.13 0 48.13-51.712 48.13-51.712v-548.213c0 0 0-51.712-48.13-51.712h-741.515c-48.175-0.002-48.175 51.712-48.175 51.712z" />
<glyph unicode="&#xe617;" d="M0.375 482.133l-0.373 332.879 409.6 55.62v-388.499h-409.227zM477.869 880.553l545.997 79.447v-477.867h-545.997v398.419zM1023.998 413.867l-0.132-477.867-545.997 76.817v401.050h546.129zM409.602 21.508l-409.267 56.1-0.021 336.258h409.289v-392.358z" />
<glyph unicode="&#xe618;" d="M412.23 448.084c-47.708 24.518-94.086 36.958-137.88 36.958-5.956 0-11.952-0.18-17.948-0.708-55.88-4.624-106.922-19.368-139.75-30.828-8.708-3.198-17.634-6.576-26.83-10.302l-89.822-311.398c61.702 22.832 116.292 33.94 166.27 33.94 80.846 0 139.528-30.208 187.992-61.304 22.962 77.92 78.044 266.092 94.482 322.324-11.95 7.282-24.076 14.568-36.514 21.318zM528.348 368.928l-90.446-314.148c26.832-15.372 117.098-64.046 186.21-64.046 55.79 0 118.25 14.292 190.832 43.792l86.36 301.976c-58.632-18.922-114.876-28.52-167.464-28.52-95.95-0.002-163.114 31.096-205.492 60.946zM292.822 591.208c77.118-0.798 134.152-30.208 181.416-60.502l92.752 317.344c-19.544 11.196-70.806 39.094-107.858 48.6-24.386 5.684-50.020 8.616-77.204 8.616-51.796-0.976-108.388-13.946-172.888-39.8l-88.44-310.594c64.808 24.436 120.644 36.34 172.086 36.34 0.046-0.004 0.136-0.004 0.136-0.004zM1024 761.876c-58.812-22.832-116.208-34.466-171.028-34.466-91.688 0-159.292 31.802-203.094 62.366l-91.95-318.236c61.748-39.708 128.292-59.878 198.124-59.878 56.95 0 115.942 13.68 175.46 40.688l-0.184 2.222 3.734 0.886 88.938 306.418z" />
<glyph unicode="&#xe619;" d="M908.049 593.72h-24.589v118.641c0 0.74-0.116 1.485-0.204 2.241-0.039 4.706-1.548 9.333-4.774 12.999l-197.441 225.532c-0.062 0.058-0.12 0.078-0.159 0.14-1.177 1.315-2.547 2.409-4.002 3.354-0.428 0.288-0.861 0.529-1.311 0.783-1.255 0.682-2.59 1.255-3.961 1.668-0.374 0.097-0.708 0.25-1.078 0.347-1.492 0.355-3.040 0.575-4.607 0.575h-485.217c-22.156 0-40.156-18.021-40.156-40.158v-326.111h-24.585c-31.695 0-57.396-25.691-57.396-57.398v-298.468c0-31.677 25.7-57.394 57.396-57.394h24.585v-204.316c0-22.139 18-40.156 40.156-40.156h662.587c22.137 0 40.156 18.017 40.156 40.156v204.314h24.589c31.686 0 57.39 25.706 57.39 57.394v298.459c0.002 31.716-25.685 57.398-57.379 57.398zM180.705 919.842h465.139v-205.45c0-11.094 8.996-20.079 20.079-20.079h177.372v-100.592h-662.589v326.12zM587.509 372.332c-39.452 13.744-65.195 35.569-65.195 70.118 0 40.524 33.823 71.524 89.862 71.524 26.765 0 46.509-5.629 60.589-11.977l-11.973-43.329c-9.508 4.568-26.419 11.275-49.675 11.275s-34.529-10.574-34.529-22.908c0-15.156 13.393-21.844 44.039-33.47 41.921-15.511 61.656-37.352 61.656-70.822 0-39.823-30.657-73.65-95.843-73.65-27.125 0-53.901 7.039-67.292 14.45l10.913 44.393c14.452-7.392 36.656-14.805 59.549-14.805 24.686 0 37.704 10.216 37.704 25.725 0.009 14.788-11.264 23.261-39.805 33.475zM496.632 317.725v-45.116h-148.362v237.515h53.931v-192.399h94.431zM175.999 272.609h-61.307l68.706 120.187-66.25 117.337h61.671l20.777-43.347c7.048-14.448 12.338-26.061 17.981-39.472h0.685c5.653 15.156 10.229 25.726 16.202 39.472l20.088 43.347h61.308l-66.95-115.916 70.484-121.588h-62.009l-21.506 42.996c-8.795 16.538-14.437 28.883-21.134 42.627h-0.7c-4.94-13.744-10.916-26.089-18.323-42.627l-19.724-43.017zM843.295-12.971h-662.589v193.441h662.587v-193.441zM843.657 272.609l-21.5 42.996c-8.806 16.553-14.442 28.883-21.14 42.628h-0.684c-4.942-13.746-10.941-26.076-18.353-42.628l-19.705-42.996h-61.325l68.706 120.187-66.246 117.337h61.669l20.803-43.347c7.041-14.448 12.313-26.061 17.963-39.472h0.704c5.627 15.156 10.195 25.726 16.194 39.472l20.081 43.347h61.323l-66.952-115.916 70.471-121.588-62.009-0.021z" />
<glyph unicode="&#xf00d;" d="M741.714 231.999q0-22.857-16-38.857l-77.714-77.714q-16-16-38.857-16t-38.857 16l-168 168-168-168q-16-16-38.857-16t-38.857 16l-77.714 77.714q-16 16-16 38.857t16 38.857l168 168-168 168q-16 16-16 38.857t16 38.857l77.714 77.714q16 16 38.857 16t38.857-16l168-168 168 168q16 16 38.857 16t38.857-16l77.714-77.714q16-16 16-38.857t-16-38.857l-168-168 168-168q16-16 16-38.857z" horiz-adv-x="805" />
<glyph unicode="&#xf019;" d="M731.429 182.857q0 14.857-10.857 25.714t-25.714 10.857-25.714-10.857-10.857-25.714 10.857-25.714 25.714-10.857 25.714 10.857 10.857 25.714zM877.714 182.857q0 14.857-10.857 25.714t-25.714 10.857-25.714-10.857-10.857-25.714 10.857-25.714 25.714-10.857 25.714 10.857 10.857 25.714zM950.857 310.857v-182.857q0-22.857-16-38.857t-38.857-16h-841.143q-22.857 0-38.857 16t-16 38.857v182.857q0 22.857 16 38.857t38.857 16h265.714l77.143-77.714q33.143-32 77.714-32t77.714 32l77.714 77.714h265.143q22.857 0 38.857-16t16-38.857zM765.143 636q9.714-23.429-8-40l-256-256q-10.286-10.857-25.714-10.857t-25.714 10.857l-256 256q-17.714 16.571-8 40 9.714 22.286 33.714 22.286h146.286v256q0 14.857 10.857 25.714t25.714 10.857h146.286q14.857 0 25.714-10.857t10.857-25.714v-256h146.286q24 0 33.714-22.286z" horiz-adv-x="951" />
<glyph unicode="&#xf071;" d="M585.143 165.143v108.571q0 8-5.429 13.429t-12.857 5.429h-109.714q-7.429 0-12.857-5.429t-5.429-13.429v-108.571q0-8 5.429-13.429t12.857-5.429h109.714q7.429 0 12.857 5.429t5.429 13.429zM584 378.857l10.286 262.286q0 6.857-5.714 10.857-7.429 6.286-13.714 6.286h-125.714q-6.286 0-13.714-6.286-5.714-4-5.714-12l9.714-261.143q0-5.714 5.714-9.429t13.714-3.714h105.714q8 0 13.429 3.714t6 9.429zM576 912.571l438.857-804.571q20-36-1.143-72-9.714-16.571-26.571-26.286t-36.286-9.714h-877.714q-19.429 0-36.286 9.714t-26.571 26.286q-21.143 36-1.143 72l438.857 804.571q9.714 17.714 26.857 28t37.143 10.286 37.143-10.286 26.857-28z" />
<glyph unicode="&#xf0a2;" d="M521.143-18.286q0 9.143-9.143 9.143-33.714 0-58 24.286t-24.286 58q0 9.143-9.143 9.143t-9.143-9.143q0-41.714 29.429-71.143t71.143-29.429q9.143 0 9.143 9.143zM140.571 146.286h742.857q-152 171.429-152 475.429 0 29.143-13.714 60t-39.429 58.857-69.429 46-96.857 18-96.857-18-69.429-46-39.429-58.857-13.714-60q0-304-152-475.429zM987.429 146.286q0-29.714-21.714-51.429t-51.429-21.714h-256q0-60.571-42.857-103.429t-103.429-42.857-103.429 42.857-42.857 103.429h-256q-29.714 0-51.429 21.714t-21.714 51.429q28.571 24 52 50.286t48.571 68.286 42.571 90.571 28.571 117.714 11.143 148.571q0 86.857 66.857 161.429t175.429 90.571q-4.571 10.857-4.571 22.286 0 22.857 16 38.857t38.857 16 38.857-16 16-38.857q0-11.429-4.571-22.286 108.571-16 175.429-90.571t66.857-161.429q0-79.429 11.143-148.571t28.571-117.714 42.571-90.571 48.571-68.286 52-50.286z" />
<glyph unicode="&#xf0c9;" d="M950.856 182.857v-73.143q0-14.857-10.857-25.714t-25.714-10.857h-804.571q-14.857 0-25.714 10.857t-10.857 25.714v73.143q0 14.857 10.857 25.714t25.714 10.857h804.571q14.857 0 25.714-10.857t10.857-25.714zM950.856 475.428v-73.143q0-14.857-10.857-25.714t-25.714-10.857h-804.571q-14.857 0-25.714 10.857t-10.857 25.714v73.143q0 14.857 10.857 25.714t25.714 10.857h804.571q14.857 0 25.714-10.857t10.857-25.714zM950.856 768v-73.143q0-14.857-10.857-25.714t-25.714-10.857h-804.571q-14.857 0-25.714 10.857t-10.857 25.714v73.143q0 14.857 10.857 25.714t25.714 10.857h804.571q14.857 0 25.714-10.857t10.857-25.714z" />
<glyph unicode="&#xf0f6;" d="M911.999 733.714q16-16 27.429-43.429t11.429-50.286v-658.286q0-22.857-16-38.857t-38.857-16h-768q-22.857 0-38.857 16t-16 38.857v914.286q0 22.857 16 38.857t38.857 16h512q22.857 0 50.286-11.429t43.429-27.429zM658.285 873.143v-214.857h214.857q-5.714 16.571-12.571 23.429l-178.857 178.857q-6.857 6.857-23.429 12.571zM877.713 0v585.143h-237.714q-22.857 0-38.857 16t-16 38.857v237.714h-438.857v-877.714h731.429zM292.571 493.714q0 8 5.143 13.143t13.143 5.143h402.286q8 0 13.143-5.143t5.143-13.143v-36.571q0-8-5.143-13.143t-13.143-5.143h-402.286q-8 0-13.143 5.143t-5.143 13.143v36.571zM713.142 365.714q8 0 13.143-5.143t5.143-13.143v-36.571q0-8-5.143-13.143t-13.143-5.143h-402.286q-8 0-13.143 5.143t-5.143 13.143v36.571q0 8 5.143 13.143t13.143 5.143h402.286zM713.142 219.428q8 0 13.143-5.143t5.143-13.143v-36.571q0-8-5.143-13.143t-13.143-5.143h-402.286q-8 0-13.143 5.143t-5.143 13.143v36.571q0 8 5.143 13.143t13.143 5.143h402.286z" />
<glyph unicode="&#xf104;" d="M358.286 676.571q0-7.429-5.714-13.143l-224.571-224.571 224.571-224.571q5.714-5.714 5.714-13.143t-5.714-13.143l-28.571-28.571q-5.714-5.714-13.143-5.714t-13.143 5.714l-266.286 266.286q-5.714 5.714-5.714 13.143t5.714 13.143l266.286 266.286q5.714 5.714 13.143 5.714t13.143-5.714l28.571-28.571q5.714-5.714 5.714-13.143z" horiz-adv-x="366" />
<glyph unicode="&#xf105;" d="M340 438.857q0-7.429-5.714-13.143l-266.286-266.286q-5.714-5.714-13.143-5.714t-13.143 5.714l-28.571 28.571q-5.714 5.714-5.714 13.143t5.714 13.143l224.571 224.571-224.571 224.571q-5.714 5.714-5.714 13.143t5.714 13.143l28.571 28.571q5.714 5.714 13.143 5.714t13.143-5.714l266.286-266.286q5.714-5.714 5.714-13.143z" horiz-adv-x="366" />
<glyph unicode="&#xf106;" d="M614.286 310.857q0-7.429-5.714-13.143l-28.571-28.571q-5.714-5.714-13.143-5.714t-13.143 5.714l-224.571 224.571-224.571-224.571q-5.714-5.714-13.143-5.714t-13.143 5.714l-28.571 28.571q-5.714 5.714-5.714 13.143t5.714 13.143l266.286 266.286q5.714 5.714 13.143 5.714t13.143-5.714l266.286-266.286q5.714-5.714 5.714-13.143z" horiz-adv-x="658" />
<glyph unicode="&#xf107;" d="M614.286 566.857q0-7.429-5.714-13.143l-266.286-266.286q-5.714-5.714-13.143-5.714t-13.143 5.714l-266.286 266.286q-5.714 5.714-5.714 13.143t5.714 13.143l28.571 28.571q5.714 5.714 13.143 5.714t13.143-5.714l224.571-224.571 224.571 224.571q5.714 5.714 13.143 5.714t13.143-5.714l28.571-28.571q5.714-5.714 5.714-13.143z" horiz-adv-x="658" />
<glyph unicode="&#xf158;" d="M596 628q0 57.143-37.143 92.571t-97.714 35.429h-182.857v-256h182.857q60.571 0 97.714 35.429t37.143 92.571zM731.429 628q0-110.286-72.286-180t-186.571-69.714h-194.286v-67.429h288.571q8 0 13.143-5.143t5.143-13.143v-73.143q0-8-5.143-13.143t-13.143-5.143h-288.571v-109.714q0-8-5.429-13.143t-12.857-5.143h-95.429q-8 0-13.143 5.143t-5.143 13.143v109.714h-128q-8 0-13.143 5.143t-5.143 13.143v73.143q0 8 5.143 13.143t13.143 5.143h128v67.429h-128q-8 0-13.143 5.143t-5.143 13.143v85.143q0 7.429 5.143 12.857t13.143 5.429h128v359.429q0 8 5.143 13.143t13.143 5.143h308q114.286 0 186.571-69.714t72.286-180z" horiz-adv-x="731" />
</font>
</defs>
</svg>
