<?xml version="1.0" encoding="utf-8"?>
<!-- Generator: Adobe Illustrator 16.0.0, SVG Export Plug-In . SVG Version: 6.00 Build 0)  -->
<!DOCTYPE svg PUBLIC "-//W3C//DTD SVG 1.1//EN" "http://www.w3.org/Graphics/SVG/1.1/DTD/svg11.dtd">
<svg version="1.1" id="Layer_1" xmlns="http://www.w3.org/2000/svg" xmlns:xlink="http://www.w3.org/1999/xlink" x="0px" y="0px"
	 width="600px" height="600px" viewBox="0 0 600 600" enable-background="new 0 0 600 600" xml:space="preserve">
<polygon opacity="0.8" fill="#1D2A35" points="298.3,321.5 311.4,321.5 311.4,301.5 298.4,301.5 287.4,310.9 "/>
<g>
	<path fill="#6F8896" d="M303.4,307.8c0,0.1,0,0.1-0.1,0.2l-3.1,3.1l3.1,3.1c0.1,0.1,0.1,0.1,0.1,0.2c0,0.1,0,0.1-0.1,0.2l-0.4,0.4
		c-0.1,0.1-0.1,0.1-0.2,0.1s-0.1,0-0.2-0.1l-3.6-3.6c-0.1-0.1-0.1-0.1-0.1-0.2s0-0.1,0.1-0.2l3.6-3.6c0.1-0.1,0.1-0.1,0.2-0.1
		s0.1,0,0.2,0.1l0.4,0.4C303.3,307.7,303.4,307.7,303.4,307.8z"/>
</g>
</svg>
